<?xml version="1.0" encoding="utf-8"?>
<!-- Generator: Adobe Illustrator 16.0.4, SVG Export Plug-In . SVG Version: 6.00 Build 0)  -->
<!DOCTYPE svg PUBLIC "-//W3C//DTD SVG 1.1//EN" "http://www.w3.org/Graphics/SVG/1.1/DTD/svg11.dtd">
<svg version="1.1" id="Layer_1" xmlns="http://www.w3.org/2000/svg" xmlns:xlink="http://www.w3.org/1999/xlink" x="0px" y="0px"
	 width="143px" height="40px" viewBox="0 40 143 40" enable-background="new 0 40 143 40" xml:space="preserve">
<g>
	<path fill="#8C2445" d="M76.643,54.477v0.237c0.015,0.841-0.084,1.685-0.289,2.498c-0.121,0.503-0.369,0.972-0.703,1.366
		c-0.41,0.443-0.965,0.72-1.571,0.775c-0.612,0.094-1.241-0.01-1.79-0.297c-0.494-0.281-0.888-0.707-1.134-1.216
		c-0.353-0.705-0.568-1.477-0.647-2.268c-0.156-1.128-0.156-2.273-0.004-3.406c0.083-0.604,0.281-1.19,0.601-1.715
		c0.471-0.688,1.237-1.125,2.075-1.187c0.84-0.055,1.655,0.265,2.219,0.879c0.406,0.467,0.688,1.015,0.846,1.603
		C76.497,52.632,76.627,53.549,76.643,54.477 M82.439,54.209c0.043-1.919-0.615-3.789-1.857-5.268
		c-1.245-1.477-2.971-2.457-4.891-2.769c-2.562-0.522-5.23-0.075-7.482,1.252c-3.278,2.25-4.548,6.443-3.069,10.111
		c0.938,2.424,3.062,4.209,5.641,4.723c2.636,0.623,5.415,0.248,7.788-1.053C81.043,59.745,82.531,57.066,82.439,54.209"/>
	<path fill="#8C2445" d="M121.012,51.418h-4.648l0.025-0.148c0.094-0.521,0.301-1.016,0.603-1.451
		c0.366-0.519,0.962-0.838,1.602-0.868c0.382-0.043,0.772,0,1.13,0.134c0.394,0.146,0.713,0.43,0.899,0.801
		c0.192,0.383,0.315,0.797,0.358,1.229L121.012,51.418 M126.984,57.67c-1.342,0.727-2.778,1.254-4.264,1.585
		c-1.152,0.267-2.369,0.215-3.494-0.151c-1.599-0.586-2.732-1.998-2.951-3.666c-0.06-0.36-0.086-0.727-0.084-1.094h10.621
		l-0.054-0.713c-0.028-0.706-0.122-1.402-0.282-2.088c-0.226-0.984-0.645-1.918-1.233-2.744c-1.108-1.428-2.735-2.374-4.54-2.648
		c-2.62-0.543-5.354,0.052-7.51,1.644c-2.592,2.224-3.627,5.74-2.645,8.994c0.633,2.565,2.641,4.582,5.227,5.241
		c3.271,0.845,6.723,0.66,9.882-0.528L126.984,57.67"/>
	<path fill="#8C2445" d="M128.424,61.764c2.307,0.579,4.693,0.826,7.07,0.738c1.582-0.053,3.145-0.426,4.578-1.092
		c1.062-0.482,1.917-1.309,2.447-2.336c0.959-1.938,0.446-4.27-1.24-5.635c-0.59-0.523-1.279-0.922-2.028-1.179
		c-0.972-0.346-1.957-0.666-2.946-0.952c-0.385-0.105-0.764-0.248-1.123-0.43l-0.344-0.251l-0.188-0.397
		c-0.037-0.188-0.021-0.385,0.037-0.567c0.084-0.199,0.224-0.376,0.418-0.487c0.272-0.164,0.582-0.26,0.896-0.301
		c0.662-0.073,1.322-0.057,1.966,0.061c1.122,0.199,2.182,0.633,3.111,1.272v-3.56l-0.426-0.092
		c-2.148-0.531-4.383-0.699-6.592-0.492c-1.316,0.099-2.597,0.48-3.762,1.119c-1.395,0.793-2.273,2.252-2.314,3.842
		c-0.051,1.594,0.752,3.101,2.104,3.963c0.883,0.566,1.846,1,2.85,1.293c0.705,0.207,1.4,0.445,2.08,0.722
		c0.266,0.108,0.517,0.239,0.748,0.41l0.344,0.364c0.105,0.201,0.148,0.44,0.105,0.666c-0.041,0.332-0.223,0.631-0.499,0.824
		c-0.286,0.192-0.61,0.323-0.944,0.387c-0.717,0.119-1.443,0.135-2.153,0.041c-1.599-0.236-3.138-0.785-4.515-1.613l-0.426-0.244
		L128.424,61.764"/>
	<path fill="#8C2445" d="M43.799,41.098h-6.175l0.214,0.152c0.333,0.225,0.643,0.496,0.9,0.799c0.254,0.312,0.4,0.693,0.408,1.087
		c0.017,0.341-0.023,0.673-0.122,0.996c-0.065,0.226-0.133,0.44-0.214,0.652l-4.206,11.907l-4.516-12.131
		c-0.323-0.804-0.59-1.627-0.815-2.461c-0.061-0.257-0.096-0.52-0.099-0.783l0.002-0.049l0.028-0.17h-13.02l0.098,0.108
		c0.744,0.703,1.208,1.623,1.329,2.599c0.07,0.512,0.109,1.028,0.101,1.545v8.664L7.123,41.098H0l0.136,0.152
		c0.536,0.521,0.978,1.121,1.311,1.771c0.311,0.701,0.483,1.453,0.495,2.207c0.168,4.199,0.177,8.401,0.021,12.596
		c0.026,0.754-0.056,1.506-0.249,2.24c-0.213,0.717-0.612,1.373-1.16,1.908l-0.118,0.104h6.59l-0.112-0.098
		C6.175,61.275,5.71,60.363,5.59,59.38c-0.073-0.517-0.104-1.037-0.098-1.557v-8.822l6.99,8.478c0.667,0.858,1.394,1.677,2.177,2.44
		c0.45,0.413,0.966,0.771,1.518,1.06c1.327,0.742,2.762,1.299,4.261,1.651c0.261,0.06,0.529,0.097,0.797,0.106V45.35
		c-0.023-0.75,0.063-1.506,0.254-2.235c0.132-0.445,0.331-0.869,0.602-1.248c0.301,0.407,0.541,0.854,0.717,1.319l0.154,0.405
		l5.531,14.113c0.22,0.614,0.527,1.196,0.91,1.729c0.516,0.678,1.193,1.23,1.971,1.633c1.417,0.726,2.927,1.283,4.487,1.672
		l7.852-21.387c0.206,0.162,0.39,0.352,0.557,0.559c0.22,0.322,0.371,0.689,0.424,1.07c0.095,0.596,0.139,1.19,0.138,1.789v13.148
		c0.022,0.764-0.017,1.523-0.131,2.277c-0.056,0.355-0.178,0.689-0.364,0.992c-0.188,0.285-0.426,0.527-0.717,0.73l-0.211,0.156
		h9.156l-0.11-0.08c-0.3-0.199-0.565-0.438-0.775-0.717c-0.215-0.283-0.355-0.614-0.416-0.946c-0.12-0.649-0.17-1.3-0.152-1.952
		l-0.008-0.496V52.5h6.176v5.419c0.027,0.765-0.016,1.524-0.125,2.278c-0.052,0.354-0.177,0.688-0.36,0.992
		c-0.188,0.285-0.431,0.531-0.726,0.729l-0.21,0.156h9.164l-0.122-0.08c-0.294-0.199-0.557-0.443-0.774-0.718
		c-0.203-0.287-0.341-0.613-0.411-0.945c-0.117-0.648-0.165-1.3-0.154-1.952V45.26c-0.021-0.765,0.021-1.525,0.134-2.279
		c0.054-0.381,0.201-0.748,0.432-1.069c0.188-0.248,0.409-0.466,0.668-0.646l0.229-0.168h-9.197l0.116,0.082
		c0.302,0.207,0.561,0.449,0.778,0.73c0.224,0.322,0.373,0.689,0.436,1.07c0.111,0.754,0.159,1.515,0.125,2.278v4h-6.176v-4
		c-0.025-0.765,0.019-1.524,0.139-2.278c0.058-0.381,0.197-0.748,0.437-1.07c0.18-0.25,0.401-0.467,0.665-0.645l0.22-0.168H43.799"
		/>
	<path fill="#8C2445" d="M89.54,47.957v-2.053l-0.153,0.074c-0.65,0.311-1.363,0.469-2.089,0.469h-4.786l0.172,0.173
		c0.26,0.254,0.481,0.544,0.659,0.87c0.171,0.352,0.269,0.736,0.288,1.131c0.021,0.213,0.032,0.431,0.038,0.646l0.033,1.575v6.894
		l-0.033,1.272c0,0.273-0.006,0.554-0.024,0.831c-0.014,0.368-0.09,0.73-0.22,1.073c-0.138,0.317-0.333,0.61-0.575,0.854
		l-0.338,0.334h8.381l-0.179-0.17c-0.231-0.234-0.442-0.494-0.612-0.776c-0.18-0.339-0.291-0.708-0.318-1.087
		c-0.037-0.354-0.049-0.709-0.045-1.061l-0.032-1.311v-4.871c-0.004-0.596,0.022-1.201,0.094-1.795
		c0.032-0.26,0.101-0.508,0.198-0.746c0.091-0.208,0.23-0.385,0.427-0.504c0.179-0.098,0.374-0.158,0.577-0.182
		c0.332-0.041,0.664-0.041,0.996,0c0.229,0.03,0.45,0.12,0.637,0.262c0.154,0.123,0.271,0.285,0.358,0.467
		c0.12,0.288,0.198,0.588,0.235,0.9c0.064,0.526,0.084,1.062,0.074,1.598v4.908l-0.031,1.272c0,0.273-0.002,0.554-0.023,0.831
		c-0.012,0.368-0.087,0.73-0.217,1.073c-0.133,0.317-0.331,0.604-0.573,0.854L92.124,62.1h8.375l-0.169-0.17
		c-0.25-0.227-0.457-0.49-0.631-0.777c-0.178-0.338-0.279-0.707-0.316-1.086c-0.027-0.354-0.04-0.709-0.035-1.061l-0.041-1.273
		v-5.373c-0.009-0.528,0.041-1.053,0.159-1.567c0.065-0.281,0.196-0.543,0.38-0.769c0.201-0.246,0.5-0.408,0.816-0.45
		c0.372-0.063,0.744-0.05,1.107,0.042c0.342,0.087,0.625,0.318,0.787,0.626c0.125,0.243,0.215,0.508,0.258,0.776
		c0.065,0.445,0.102,0.892,0.097,1.342v5.373l-0.04,1.273c0,0.273-0.005,0.555-0.021,0.831c-0.017,0.368-0.092,0.735-0.229,1.073
		c-0.134,0.318-0.331,0.605-0.576,0.854l-0.323,0.336h8.391l-0.176-0.172c-0.246-0.226-0.459-0.49-0.629-0.775
		c-0.184-0.338-0.298-0.709-0.332-1.086c-0.025-0.354-0.055-0.709-0.059-1.062v-7.887c0.055-1.472-0.59-2.888-1.732-3.828
		c-1.002-0.763-2.228-1.209-3.492-1.287c-1.539-0.183-3.102,0.138-4.444,0.909c-0.479,0.292-0.931,0.643-1.319,1.04l-0.119-0.129
		c-0.621-0.709-1.412-1.261-2.309-1.585c-2.094-0.717-4.414-0.086-5.839,1.585L89.54,47.957"/>
	<path fill="#8C2445" d="M28.891,75.011l1.276-6.499c0.148-0.756,0.208-1.287-0.252-1.762h2.781
		c-0.646,0.475-0.795,1.006-0.943,1.762l-1.369,6.973c0.77,0.119,1.386,0.179,1.834,0.179c1.016,0,1.98-0.267,2.976-0.845
		l-1.089,1.97h-6.16C28.592,76.299,28.742,75.766,28.891,75.011z M37.627,76.965c-1.54,0-2.461-1.021-2.154-2.591l0.646-3.286
		c0.116-0.592,0.063-1.008-0.246-1.332c0.074,0,0.134,0,0.209,0c0.508,0,1.085-0.045,1.721-0.164l-0.788,4.012
		c-0.291,1.482,0.063,2.192,1.319,2.192c1.331,0,1.91-0.667,2.192-2.103l0.511-2.605c0.116-0.592,0.063-1.008-0.246-1.332
		c0.06,0,0.12,0,0.179,0c0.554,0,1.118-0.061,1.737-0.164l-1.119,5.701c-0.116,0.592-0.061,0.99,0.249,1.316
		c-0.045,0-0.09,0-0.134,0c-0.509,0-1.062,0.074-1.68,0.178l0.111-0.947C39.269,76.596,38.479,76.965,37.627,76.965z M45.807,73.131
		l-1.173-2.177c-0.253-0.458-0.581-0.845-0.945-1.198h1.869c0.216,0.191,0.364,0.428,0.494,0.68l0.885,1.658l1.006-0.933
		c0.458-0.429,0.695-0.726,0.721-0.858c0.035-0.178-0.049-0.354-0.221-0.547h2.363l-3.394,3.197l1.553,2.9
		c0.154,0.282,0.419,0.607,0.819,0.934H47.93c-0.303-0.133-0.43-0.475-0.65-0.873l-1.017-1.91l-1.725,1.629
		c-0.291,0.268-0.466,0.473-0.51,0.695c-0.021,0.104,0.023,0.268,0.18,0.459h-2.333L45.807,73.131z M52.754,76.965
		c-1.54,0-2.461-1.021-2.153-2.591l0.646-3.286c0.116-0.592,0.064-1.008-0.247-1.332c0.075,0,0.135,0,0.209,0
		c0.508,0,1.085-0.045,1.721-0.164l-0.788,4.012c-0.291,1.482,0.063,2.192,1.319,2.192c1.331,0,1.91-0.667,2.192-2.103l0.512-2.605
		c0.116-0.592,0.063-1.008-0.247-1.332c0.06,0,0.119,0,0.179,0c0.554,0,1.118-0.061,1.736-0.164l-1.119,5.701
		c-0.116,0.592-0.06,0.99,0.25,1.316c-0.045,0-0.089,0-0.134,0c-0.509,0-1.062,0.074-1.68,0.178l0.111-0.947
		C54.397,76.596,53.606,76.965,52.754,76.965z M61.75,70.836c-1.018,0-1.721,0.695-1.98,2.014l-0.515,2.62
		c-0.115,0.593-0.061,0.992,0.25,1.317h-2.392c0.438-0.325,0.651-0.725,0.767-1.317l0.86-4.382c0.116-0.592,0.063-1.008-0.247-1.332
		c0.06,0,0.105,0,0.165,0c0.493,0,1.043-0.061,1.661-0.164l-0.115,1.125c0.582-0.754,1.189-1.109,1.907-1.109
		c0.195,0,0.384,0.029,0.6,0.074l-0.273,1.393C62.243,70.91,62.034,70.836,61.75,70.836z M62.164,78.623
		c0.265,0.178,0.517,0.268,0.831,0.268c0.776,0,1.548-0.727,2.296-2.178c-0.285-0.295-0.474-0.783-0.64-1.465l-1.016-4.115
		c-0.133-0.533-0.247-1.021-0.775-1.377h1.958c0.15,0.221,0.207,0.473,0.264,0.709l1.086,4.754l2.346-3.953
		c0.16-0.281,0.272-0.549,0.322-0.801c0.043-0.222-0.06-0.457-0.265-0.709h2.063l-4.672,7.875c-0.92,1.57-2.17,2.369-3.68,2.369
		c-0.553,0-1.095-0.133-1.661-0.37L62.164,78.623z M75.548,76.787h-2.394c0.438-0.325,0.65-0.725,0.769-1.317l0.923-4.694h-0.81
		l1.008-1.02c0.022-0.119,0.032-0.236,0.054-0.342c0.391-1.998,1.611-2.961,3.75-2.961c0.254,0,0.536,0.016,0.813,0.045
		l-1.024,1.037c-0.314-0.075-0.563-0.105-0.742-0.105c-0.777,0-1.103,0.43-1.295,1.422l-0.18,0.904h1.794l-0.2,1.02h-1.793
		l-0.922,4.694C75.182,76.062,75.238,76.462,75.548,76.787z M79.107,70.613c0.865-0.682,1.994-1.096,3.084-1.096
		c1.107,0,1.938,0.342,2.541,1.082c0.578,0.709,0.787,1.627,0.595,2.604c-0.209,1.065-0.8,2.014-1.722,2.737
		c-0.864,0.683-1.988,1.082-3.08,1.082c-1.123,0-1.94-0.325-2.541-1.067c-0.58-0.709-0.801-1.644-0.611-2.604
		C77.583,72.286,78.188,71.34,79.107,70.613z M80.889,76.004c1.361,0,2.543-1.066,2.846-2.607c0.324-1.657-0.488-2.842-1.908-2.842
		c-1.361,0-2.544,1.08-2.824,2.502C78.652,74.834,79.439,76.004,80.889,76.004z M89.409,70.836c-1.019,0-1.722,0.695-1.979,2.014
		l-0.516,2.62c-0.116,0.593-0.061,0.992,0.249,1.317h-2.392c0.438-0.325,0.649-0.725,0.768-1.317l0.859-4.382
		c0.115-0.592,0.062-1.008-0.248-1.332c0.062,0,0.105,0,0.166,0c0.492,0,1.043-0.061,1.66-0.164l-0.115,1.125
		c0.582-0.754,1.189-1.109,1.908-1.109c0.193,0,0.383,0.029,0.599,0.074l-0.272,1.393C89.904,70.91,89.693,70.836,89.409,70.836z
		 M94.213,75.011l1.277-6.499c0.146-0.756,0.207-1.287-0.254-1.762h2.781c-0.646,0.475-0.795,1.006-0.943,1.762l-1.37,6.973
		c0.771,0.119,1.387,0.179,1.835,0.179c1.018,0,1.98-0.267,2.977-0.845l-1.089,1.97h-6.161
		C93.915,76.299,94.064,75.766,94.213,75.011z M102.282,76.787h-2.378c0.438-0.325,0.65-0.725,0.768-1.317l0.86-4.382
		c0.116-0.592,0.062-1.008-0.246-1.332c0.75-0.016,1.386-0.061,1.899-0.164l-1.153,5.878
		C101.916,76.062,101.973,76.462,102.282,76.787z M102.951,66.986c0.479,0,0.806,0.385,0.706,0.889
		c-0.101,0.503-0.562,0.889-1.056,0.889c-0.509,0-0.819-0.399-0.724-0.889C101.975,67.387,102.457,66.986,102.951,66.986z
		 M105.168,76.787h-2.393c0.438-0.325,0.65-0.725,0.768-1.317l0.921-4.694h-0.808l1.009-1.02c0.022-0.119,0.03-0.236,0.051-0.342
		c0.394-1.998,1.613-2.961,3.751-2.961c0.256,0,0.536,0.016,0.814,0.045l-1.026,1.037c-0.313-0.075-0.562-0.105-0.741-0.105
		c-0.777,0-1.102,0.43-1.296,1.422l-0.178,0.904h1.794l-0.2,1.02h-1.794l-0.922,4.694C104.802,76.062,104.859,76.462,105.168,76.787
		z M110.993,75.973c0.794,0,1.683-0.267,2.722-0.754l-1.062,1.361c-0.863,0.296-1.629,0.459-2.301,0.459
		c-2.348,0-3.759-1.569-3.33-3.76c0.442-2.252,2.336-3.82,4.504-3.82c1.988,0,3.021,1.361,2.604,3.643h-5.486
		C108.366,74.893,109.318,75.973,110.993,75.973z M112.738,72.109c0.14-1.008-0.506-1.688-1.491-1.688
		c-1.091,0-1.964,0.638-2.306,1.688H112.738z"/>
	<rect x="0.3" y="71.641" transform="matrix(1 0.002 -0.002 1 0.145 -0.0234)" fill="#8C2445" width="22.943" height="1.613"/>
	<rect x="118.377" y="71.646" fill="#8C2445" width="24.574" height="1.612"/>
	<path fill="#8C2445" d="M116.43,66.379c1.201,0,2.16,0.969,2.16,2.178c0,1.229-0.959,2.188-2.17,2.188
		c-1.204,0-2.18-0.959-2.18-2.188c0-1.209,0.976-2.178,2.18-2.178H116.43z M116.42,66.718c-0.968,0-1.76,0.823-1.76,1.839
		c0,1.035,0.792,1.851,1.77,1.851c0.978,0.01,1.76-0.814,1.76-1.841c0-1.025-0.782-1.849-1.76-1.849H116.42z M116.008,69.824h-0.391
		v-2.43c0.205-0.027,0.4-0.058,0.693-0.058c0.371,0,0.616,0.076,0.763,0.185c0.147,0.104,0.226,0.271,0.226,0.502
		c0,0.319-0.215,0.514-0.479,0.592v0.02c0.214,0.038,0.359,0.231,0.41,0.59c0.06,0.377,0.117,0.522,0.156,0.601h-0.412
		c-0.058-0.077-0.115-0.3-0.166-0.619c-0.059-0.31-0.215-0.427-0.526-0.427h-0.274V69.824z M116.008,68.479h0.284
		c0.321,0,0.597-0.115,0.597-0.416c0-0.213-0.156-0.427-0.597-0.427c-0.128,0-0.216,0.011-0.284,0.021V68.479z"/>
</g>
</svg>
